<svg width="40" height="40" viewBox="0 0 40 40" fill="none" xmlns="http://www.w3.org/2000/svg">
<rect width="40" height="40" rx="4" fill="white"/>
<path d="M19.6604 26.096C18.8497 26.096 18.0817 25.968 17.3564 25.712C16.6417 25.4453 16.0657 25.0933 15.6284 24.656L16.1884 23.744C16.551 24.1173 17.0364 24.4267 17.6444 24.672C18.263 24.9173 18.935 25.04 19.6604 25.04C20.5884 25.04 21.2977 24.8373 21.7884 24.432C22.2897 24.0267 22.5404 23.4827 22.5404 22.8C22.5404 22.1173 22.295 21.5733 21.8044 21.168C21.3244 20.7627 20.5617 20.56 19.5164 20.56H18.7164V19.712L22.1724 15.376L22.3324 15.824H16.0924V14.8H23.2924V15.616L19.8364 19.952L19.2764 19.584H19.7084C21.0524 19.584 22.055 19.8827 22.7164 20.48C23.3884 21.0773 23.7244 21.8453 23.7244 22.784C23.7244 23.4133 23.575 23.9787 23.2764 24.48C22.9777 24.9813 22.5244 25.376 21.9164 25.664C21.319 25.952 20.567 26.096 19.6604 26.096Z" fill="#7859CF"/>
</svg>
