<svg width="40" height="40" viewBox="0 0 40 40" fill="none" xmlns="http://www.w3.org/2000/svg">
<path d="M15.9038 26V24.608L20.3518 20.384C20.7251 20.032 21.0024 19.7227 21.1838 19.456C21.3651 19.1893 21.4824 18.944 21.5358 18.72C21.5998 18.4853 21.6318 18.2667 21.6318 18.064C21.6318 17.552 21.4558 17.1573 21.1038 16.88C20.7518 16.592 20.2344 16.448 19.5518 16.448C19.0078 16.448 18.5118 16.544 18.0638 16.736C17.6264 16.928 17.2478 17.2213 16.9278 17.616L15.4718 16.496C15.9091 15.9093 16.4958 15.456 17.2318 15.136C17.9784 14.8053 18.8104 14.64 19.7278 14.64C20.5384 14.64 21.2424 14.7733 21.8398 15.04C22.4478 15.296 22.9118 15.664 23.2318 16.144C23.5624 16.624 23.7278 17.1947 23.7278 17.856C23.7278 18.2187 23.6798 18.5813 23.5838 18.944C23.4878 19.296 23.3064 19.6693 23.0398 20.064C22.7731 20.4587 22.3838 20.9013 21.8718 21.392L18.0478 25.024L17.6158 24.24H24.1597V26H15.9038Z" fill="#333333"/>
</svg>
